<svg xmlns="http://www.w3.org/2000/svg" viewBox="0 0 512 512">
  <rect width="512" height="512" rx="96" fill="#0b1e1a"/>
  <!-- Left minaret -->
  <rect x="88" y="165" width="44" height="205" rx="4" fill="#13b4a0"/>
  <path d="M110 95 Q88 145 88 165 L132 165 Q132 145 110 95Z" fill="#13b4a0"/>
  <circle cx="110" cy="92" r="8" fill="#d4a017"/>
  <!-- Right minaret -->
  <rect x="380" y="165" width="44" height="205" rx="4" fill="#13b4a0"/>
  <path d="M402 95 Q380 145 380 165 L424 165 Q424 145 402 95Z" fill="#13b4a0"/>
  <circle cx="402" cy="92" r="8" fill="#d4a017"/>
  <!-- Dome -->
  <path d="M154 282 Q154 158 256 158 Q358 158 358 282Z" fill="#d4a017"/>
  <!-- Dome crescent -->
  <circle cx="256" cy="175" r="18" fill="#0b1e1a"/>
  <circle cx="263" cy="172" r="14" fill="#d4a017"/>
  <!-- Body -->
  <rect x="154" y="282" width="204" height="135" fill="#0e2820"/>
  <rect x="154" y="282" width="204" height="7" fill="#d4a017"/>
  <!-- Door arch -->
  <path d="M228 417 L228 342 Q256 314 284 342 L284 417Z" fill="#13b4a0"/>
  <!-- Side windows -->
  <ellipse cx="194" cy="322" rx="14" ry="19" fill="none" stroke="#d4a017" stroke-width="3" opacity="0.7"/>
  <ellipse cx="318" cy="322" rx="14" ry="19" fill="none" stroke="#d4a017" stroke-width="3" opacity="0.7"/>
</svg>
